<?xml version="1.0" encoding="UTF-8"?>
<svg height="16px" viewBox="0 0 16 16" width="16px" xmlns="http://www.w3.org/2000/svg">
    <path d="m 4.417969 2 h 7.164062 c 1.335938 0 2.417969 1.082031 2.417969 2.417969 v 7.164062 c 0 1.335938 -1.082031 2.417969 -2.417969 2.417969 h -7.164062 c -1.335938 0 -2.417969 -1.082031 -2.417969 -2.417969 v -7.164062 c 0 -1.335938 1.082031 -2.417969 2.417969 -2.417969 z m 0 0" fill="none" stroke="#241f31" stroke-linecap="round" stroke-linejoin="round" stroke-width="2"/>
    <g fill="#241f31">
        <path d="m 10.273438 12 c 1.109374 0 1.726562 -0.53125 1.726562 -1.371094 c 0 -1.535156 -2.070312 -1.070312 -2.070312 -1.695312 c 0 -0.207032 0.234374 -0.324219 0.644531 -0.324219 c 0.339843 0 0.714843 0.0625 1.007812 0.164063 l 0.289063 -0.832032 c -0.347656 -0.160156 -0.8125 -0.25 -1.242188 -0.25 c -1.0625 0 -1.785156 0.554688 -1.785156 1.402344 c 0 1.421875 2.058594 1.019531 2.058594 1.664062 c 0 0.191407 -0.183594 0.300782 -0.585938 0.300782 c -0.378906 0 -0.839844 -0.070313 -1.253906 -0.246094 l -0.289062 0.855469 c 0.425781 0.195312 0.980468 0.332031 1.5 0.332031 z m -1.675782 -5.988281"/>
        <path d="m 4 9.3125 h 1.25 v 1.25 h -1.25 z m 0 0"/>
        <path d="m 4 10.75 h 1.25 v 1.25 h -1.25 z m 0 0"/>
        <path d="m 4 7.878906 h 1.25 v 1.25 h -1.25 z m 0 0"/>
        <path d="m 4 6.441406 h 1.25 v 1.25 h -1.25 z m 0 0"/>
        <path d="m 4 5.007812 h 1.25 v 1.25 h -1.25 z m 0 0"/>
        <path d="m 5.4375 5 h 1.25 v 1.25 h -1.25 z m 0 0"/>
        <path d="m 6.871094 5 h 1.25 v 1.25 h -1.25 z m 0 0"/>
        <path d="m 6.871094 7.882812 h 1.25 v 1.253907 h -1.25 z m 0 0"/>
        <path d="m 6.871094 6.441406 h 1.25 v 1.25 h -1.25 z m 0 0"/>
        <path d="m 5.4375 7.878906 h 1.25 v 1.25 h -1.25 z m 0 0"/>
    </g>
</svg>
